<svg width="239" height="30" viewBox="0 0 239 30" fill="none" xmlns="http://www.w3.org/2000/svg">
<path d="M14.6033 4.31665C14.8914 3.73297 15.0355 3.44113 15.231 3.34789C15.4012 3.26677 15.5989 3.26677 15.769 3.34789C15.9646 3.44113 16.1086 3.73297 16.3967 4.31664L19.1301 9.8541C19.2151 10.0264 19.2577 10.1126 19.3198 10.1795C19.3748 10.2387 19.4408 10.2867 19.5141 10.3208C19.5969 10.3593 19.692 10.3732 19.8822 10.401L25.9962 11.2946C26.6401 11.3887 26.962 11.4358 27.111 11.593C27.2406 11.7299 27.3016 11.9179 27.2769 12.1047C27.2485 12.3195 27.0155 12.5465 26.5493 13.0005L22.1268 17.308C21.9889 17.4423 21.92 17.5094 21.8755 17.5893C21.8362 17.6601 21.8109 17.7378 21.8011 17.8181C21.7901 17.9089 21.8064 18.0037 21.8389 18.1934L22.8824 24.2776C22.9925 24.9194 23.0475 25.2402 22.9441 25.4306C22.8541 25.5963 22.6942 25.7125 22.5088 25.7468C22.2958 25.7863 22.0076 25.6348 21.4314 25.3318L15.9655 22.4573C15.7952 22.3677 15.71 22.3229 15.6203 22.3054C15.5409 22.2898 15.4592 22.2898 15.3797 22.3054C15.29 22.3229 15.2049 22.3677 15.0346 22.4573L9.56865 25.3318C8.99239 25.6348 8.70426 25.7863 8.49121 25.7468C8.30585 25.7125 8.1459 25.5963 8.05592 25.4306C7.9525 25.2402 8.00753 24.9194 8.11759 24.2776L9.16111 18.1934C9.19364 18.0037 9.20991 17.9089 9.1989 17.8181C9.18915 17.7378 9.16389 17.6601 9.12451 17.5893C9.08003 17.5094 9.0111 17.4423 8.87323 17.308L4.4507 13.0005C3.98458 12.5465 3.75152 12.3195 3.72316 12.1047C3.69848 11.9179 3.75944 11.7299 3.88906 11.593C4.03804 11.4358 4.35996 11.3887 5.0038 11.2946L11.1179 10.401C11.308 10.3732 11.4031 10.3593 11.4859 10.3208C11.5592 10.2867 11.6252 10.2387 11.6802 10.1795C11.7424 10.1126 11.7849 10.0264 11.87 9.8541L14.6033 4.31665Z" fill="#FBBF24" stroke="#FBBF24" stroke-width="2.5" stroke-linecap="round" stroke-linejoin="round"/>
<path d="M66.6033 4.31665C66.8914 3.73297 67.0355 3.44113 67.231 3.34789C67.4012 3.26677 67.5989 3.26677 67.769 3.34789C67.9646 3.44113 68.1086 3.73297 68.3967 4.31664L71.1301 9.8541C71.2151 10.0264 71.2577 10.1126 71.3198 10.1795C71.3748 10.2387 71.4408 10.2867 71.5141 10.3208C71.5969 10.3593 71.692 10.3732 71.8822 10.401L77.9962 11.2946C78.6401 11.3887 78.962 11.4358 79.111 11.593C79.2406 11.7299 79.3016 11.9179 79.2769 12.1047C79.2485 12.3195 79.0155 12.5465 78.5493 13.0005L74.1268 17.308C73.9889 17.4423 73.92 17.5094 73.8755 17.5893C73.8362 17.6601 73.8109 17.7378 73.8011 17.8181C73.7901 17.9089 73.8064 18.0037 73.8389 18.1934L74.8824 24.2776C74.9925 24.9194 75.0475 25.2402 74.9441 25.4306C74.8541 25.5963 74.6942 25.7125 74.5088 25.7468C74.2958 25.7863 74.0076 25.6348 73.4314 25.3318L67.9655 22.4573C67.7952 22.3677 67.71 22.3229 67.6203 22.3054C67.5409 22.2898 67.4592 22.2898 67.3797 22.3054C67.29 22.3229 67.2049 22.3677 67.0346 22.4573L61.5687 25.3318C60.9924 25.6348 60.7043 25.7863 60.4912 25.7468C60.3059 25.7125 60.1459 25.5963 60.0559 25.4306C59.9525 25.2402 60.0075 24.9194 60.1176 24.2776L61.1611 18.1934C61.1936 18.0037 61.2099 17.9089 61.1989 17.8181C61.1892 17.7378 61.1639 17.6601 61.1245 17.5893C61.08 17.5094 61.0111 17.4423 60.8732 17.308L56.4507 13.0005C55.9846 12.5465 55.7515 12.3195 55.7232 12.1047C55.6985 11.9179 55.7594 11.7299 55.8891 11.593C56.038 11.4358 56.36 11.3887 57.0038 11.2946L63.1179 10.401C63.308 10.3732 63.4031 10.3593 63.4859 10.3208C63.5592 10.2867 63.6252 10.2387 63.6802 10.1795C63.7424 10.1126 63.7849 10.0264 63.87 9.8541L66.6033 4.31665Z" fill="#FBBF24" stroke="#FBBF24" stroke-width="2.5" stroke-linecap="round" stroke-linejoin="round"/>
<path d="M118.603 4.31665C118.891 3.73297 119.035 3.44113 119.231 3.34789C119.401 3.26677 119.599 3.26677 119.769 3.34789C119.965 3.44113 120.109 3.73297 120.397 4.31664L123.13 9.8541C123.215 10.0264 123.258 10.1126 123.32 10.1795C123.375 10.2387 123.441 10.2867 123.514 10.3208C123.597 10.3593 123.692 10.3732 123.882 10.401L129.996 11.2946C130.64 11.3887 130.962 11.4358 131.111 11.593C131.241 11.7299 131.302 11.9179 131.277 12.1047C131.249 12.3195 131.015 12.5465 130.549 13.0005L126.127 17.308C125.989 17.4423 125.92 17.5094 125.876 17.5893C125.836 17.6601 125.811 17.7378 125.801 17.8181C125.79 17.9089 125.806 18.0037 125.839 18.1934L126.882 24.2776C126.993 24.9194 127.048 25.2402 126.944 25.4306C126.854 25.5963 126.694 25.7125 126.509 25.7468C126.296 25.7863 126.008 25.6348 125.431 25.3318L119.965 22.4573C119.795 22.3677 119.71 22.3229 119.62 22.3054C119.541 22.2898 119.459 22.2898 119.38 22.3054C119.29 22.3229 119.205 22.3677 119.035 22.4573L113.569 25.3318C112.992 25.6348 112.704 25.7863 112.491 25.7468C112.306 25.7125 112.146 25.5963 112.056 25.4306C111.953 25.2402 112.008 24.9194 112.118 24.2776L113.161 18.1934C113.194 18.0037 113.21 17.9089 113.199 17.8181C113.189 17.7378 113.164 17.6601 113.125 17.5893C113.08 17.5094 113.011 17.4423 112.873 17.308L108.451 13.0005C107.985 12.5465 107.752 12.3195 107.723 12.1047C107.698 11.9179 107.759 11.7299 107.889 11.593C108.038 11.4358 108.36 11.3887 109.004 11.2946L115.118 10.401C115.308 10.3732 115.403 10.3593 115.486 10.3208C115.559 10.2867 115.625 10.2387 115.68 10.1795C115.742 10.1126 115.785 10.0264 115.87 9.8541L118.603 4.31665Z" fill="#FBBF24" stroke="#FBBF24" stroke-width="2.5" stroke-linecap="round" stroke-linejoin="round"/>
<path d="M170.603 4.31665C170.891 3.73297 171.035 3.44113 171.231 3.34789C171.401 3.26677 171.599 3.26677 171.769 3.34789C171.965 3.44113 172.109 3.73297 172.397 4.31664L175.13 9.8541C175.215 10.0264 175.258 10.1126 175.32 10.1795C175.375 10.2387 175.441 10.2867 175.514 10.3208C175.597 10.3593 175.692 10.3732 175.882 10.401L181.996 11.2946C182.64 11.3887 182.962 11.4358 183.111 11.593C183.241 11.7299 183.302 11.9179 183.277 12.1047C183.249 12.3195 183.015 12.5465 182.549 13.0005L178.127 17.308C177.989 17.4423 177.92 17.5094 177.876 17.5893C177.836 17.6601 177.811 17.7378 177.801 17.8181C177.79 17.9089 177.806 18.0037 177.839 18.1934L178.882 24.2776C178.993 24.9194 179.048 25.2402 178.944 25.4306C178.854 25.5963 178.694 25.7125 178.509 25.7468C178.296 25.7863 178.008 25.6348 177.431 25.3318L171.965 22.4573C171.795 22.3677 171.71 22.3229 171.62 22.3054C171.541 22.2898 171.459 22.2898 171.38 22.3054C171.29 22.3229 171.205 22.3677 171.035 22.4573L165.569 25.3318C164.992 25.6348 164.704 25.7863 164.491 25.7468C164.306 25.7125 164.146 25.5963 164.056 25.4306C163.953 25.2402 164.008 24.9194 164.118 24.2776L165.161 18.1934C165.194 18.0037 165.21 17.9089 165.199 17.8181C165.189 17.7378 165.164 17.6601 165.125 17.5893C165.08 17.5094 165.011 17.4423 164.873 17.308L160.451 13.0005C159.985 12.5465 159.752 12.3195 159.723 12.1047C159.698 11.9179 159.759 11.7299 159.889 11.593C160.038 11.4358 160.36 11.3887 161.004 11.2946L167.118 10.401C167.308 10.3732 167.403 10.3593 167.486 10.3208C167.559 10.2867 167.625 10.2387 167.68 10.1795C167.742 10.1126 167.785 10.0264 167.87 9.8541L170.603 4.31665Z" fill="#FBBF24" stroke="#FBBF24" stroke-width="2.5" stroke-linecap="round" stroke-linejoin="round"/>
<path d="M222.603 4.31665C222.891 3.73297 223.035 3.44113 223.231 3.34789C223.401 3.26677 223.599 3.26677 223.769 3.34789C223.965 3.44113 224.109 3.73297 224.397 4.31664L227.13 9.8541C227.215 10.0264 227.258 10.1126 227.32 10.1795C227.375 10.2387 227.441 10.2867 227.514 10.3208C227.597 10.3593 227.692 10.3732 227.882 10.401L233.996 11.2946C234.64 11.3887 234.962 11.4358 235.111 11.593C235.241 11.7299 235.302 11.9179 235.277 12.1047C235.249 12.3195 235.015 12.5465 234.549 13.0005L230.127 17.308C229.989 17.4423 229.92 17.5094 229.876 17.5893C229.836 17.6601 229.811 17.7378 229.801 17.8181C229.79 17.9089 229.806 18.0037 229.839 18.1934L230.882 24.2776C230.993 24.9194 231.048 25.2402 230.944 25.4306C230.854 25.5963 230.694 25.7125 230.509 25.7468C230.296 25.7863 230.008 25.6348 229.431 25.3318L223.965 22.4573C223.795 22.3677 223.71 22.3229 223.62 22.3054C223.541 22.2898 223.459 22.2898 223.38 22.3054C223.29 22.3229 223.205 22.3677 223.035 22.4573L217.569 25.3318C216.992 25.6348 216.704 25.7863 216.491 25.7468C216.306 25.7125 216.146 25.5963 216.056 25.4306C215.953 25.2402 216.008 24.9194 216.118 24.2776L217.161 18.1934C217.194 18.0037 217.21 17.9089 217.199 17.8181C217.189 17.7378 217.164 17.6601 217.125 17.5893C217.08 17.5094 217.011 17.4423 216.873 17.308L212.451 13.0005C211.985 12.5465 211.752 12.3195 211.723 12.1047C211.698 11.9179 211.759 11.7299 211.889 11.593C212.038 11.4358 212.36 11.3887 213.004 11.2946L219.118 10.401C219.308 10.3732 219.403 10.3593 219.486 10.3208C219.559 10.2867 219.625 10.2387 219.68 10.1795C219.742 10.1126 219.785 10.0264 219.87 9.8541L222.603 4.31665Z" stroke="#D1D5DB" stroke-width="2.5" stroke-linecap="round" stroke-linejoin="round"/>
</svg>
